<svg version="1.1" xmlns="http://www.w3.org/2000/svg" xmlns:xlink="http://www.w3.org/1999/xlink" width="16" height="16" viewBox="0,0,256,256"><g fill="#ff392b" fill-rule="evenodd" stroke="none" stroke-width="1" stroke-linecap="butt" stroke-linejoin="miter" stroke-miterlimit="10" stroke-dasharray="" stroke-dashoffset="0" font-family="none" font-weight="none" font-size="none" text-anchor="none" style="mix-blend-mode: normal"><g transform="translate(-0.00715,0) scale(16,16)"><path d="M1,8c0,-0.27614 0.22386,-0.5 0.5,-0.5h11.793l-3.147,-3.146c-0.19551,-0.19551 -0.19551,-0.51249 0,-0.708c0.19551,-0.19551 0.51249,-0.19551 0.708,0l4,4c0.09404,0.0938 0.14689,0.22117 0.14689,0.354c0,0.13283 -0.05285,0.2602 -0.14689,0.354l-4,4c-0.19551,0.19551 -0.51249,0.19551 -0.708,0c-0.19551,-0.19551 -0.19551,-0.51249 0,-0.708l3.147,-3.146h-11.793c-0.27614,0 -0.5,-0.22386 -0.5,-0.5z"></path></g></g></svg>