<svg width="1000" height="600" viewBox="0 0 1000 600" fill="none" xmlns="http://www.w3.org/2000/svg">
<g clip-path="url(#clip0_6_56)">
<path d="M165.518 40.0664C197.907 40.0664 224.844 44.054 246.328 52.0293C267.812 59.8418 283.926 71.5605 294.668 87.1855C305.573 102.811 311.025 122.26 311.025 145.535C311.025 160.021 308.584 173.204 303.701 185.086C298.818 196.967 291.82 207.628 282.705 217.068C273.753 226.346 263.011 234.484 250.479 241.482L354.482 397H245.107L169.424 267.117H145.01V397H48.5742V40.0664H165.518ZM164.053 113.064H145.01V194.607H163.076C177.887 194.607 190.013 191.352 199.453 184.842C208.893 178.331 213.613 166.694 213.613 149.93C213.613 138.374 209.707 129.34 201.895 122.83C194.082 116.32 181.468 113.064 164.053 113.064ZM598.867 397H386.953V40.0664H598.867V117.459H483.389V173.611H590.322V251.004H483.389V318.387H598.867V397ZM964.346 210.965C964.346 252.469 956.615 286.974 941.152 314.48C925.69 341.987 903.88 362.658 875.723 376.492C847.728 390.164 814.769 397 776.846 397H661.367V40.0664H784.902C823.314 40.0664 855.866 46.6582 882.559 59.8418C909.251 73.0254 929.515 92.3125 943.35 117.703C957.347 143.094 964.346 174.181 964.346 210.965ZM864.248 214.383C864.248 192.736 861.318 174.832 855.459 160.672C849.762 146.349 841.136 135.688 829.58 128.689C818.024 121.528 803.457 117.947 785.879 117.947H757.803V317.898H779.287C808.584 317.898 830.068 309.435 843.74 292.508C857.412 275.418 864.248 249.376 864.248 214.383Z" fill="#FF4545"/>
<path d="M135.499 525.679L162.825 534.344C158.636 549.578 151.653 560.909 141.878 568.335C132.166 575.699 119.82 579.38 104.839 579.38C86.3042 579.38 71.0698 573.064 59.1362 560.433C47.2026 547.737 41.2358 530.408 41.2358 508.445C41.2358 485.213 47.2344 467.186 59.2314 454.363C71.2285 441.478 87.0024 435.035 106.553 435.035C123.628 435.035 137.498 440.081 148.162 450.174C154.51 456.141 159.271 464.71 162.444 475.882L134.546 482.547C132.896 475.311 129.437 469.598 124.168 465.408C118.963 461.219 112.615 459.124 105.125 459.124C94.7783 459.124 86.3677 462.837 79.8931 470.264C73.4819 477.691 70.2764 489.72 70.2764 506.351C70.2764 523.997 73.4502 536.565 79.7979 544.056C86.1455 551.546 94.3975 555.291 104.554 555.291C112.044 555.291 118.487 552.911 123.882 548.15C129.278 543.389 133.15 535.899 135.499 525.679ZM312.979 577H282.32L270.132 545.293H214.336L202.815 577H172.918L227.286 437.415H257.088L312.979 577ZM261.087 521.775L241.854 469.979L223.001 521.775H261.087ZM344.971 577V461.028H303.553V437.415H414.478V461.028H373.155V577H344.971ZM544.161 577H513.501L501.314 545.293H445.518L433.997 577H404.1L458.467 437.415H488.27L544.161 577ZM492.269 521.775L473.035 469.979L454.183 521.775H492.269ZM559.966 577V438.558H588.15V553.482H658.228V577H559.966ZM672.701 508.064C672.701 493.846 674.827 481.912 679.08 472.264C682.254 465.154 686.57 458.775 692.029 453.125C697.552 447.476 703.582 443.287 710.12 440.557C718.816 436.875 728.846 435.035 740.208 435.035C760.774 435.035 777.215 441.414 789.529 454.173C801.907 466.932 808.096 484.673 808.096 507.398C808.096 529.932 801.971 547.579 789.72 560.337C777.469 573.033 761.092 579.38 740.589 579.38C719.832 579.38 703.328 573.064 691.077 560.433C678.826 547.737 672.701 530.281 672.701 508.064ZM701.741 507.112C701.741 522.918 705.391 534.915 712.691 543.104C719.991 551.229 729.258 555.291 740.494 555.291C751.729 555.291 760.933 551.26 768.106 543.199C775.342 535.074 778.96 522.918 778.96 506.731C778.96 490.735 775.438 478.802 768.392 470.931C761.409 463.06 752.11 459.124 740.494 459.124C728.877 459.124 719.515 463.123 712.405 471.121C705.296 479.056 701.741 491.053 701.741 507.112ZM895.123 525.679V502.161H955.87V557.767C949.966 563.479 941.397 568.526 930.162 572.906C918.99 577.222 907.659 579.38 896.17 579.38C881.57 579.38 868.843 576.333 857.989 570.24C847.134 564.083 838.978 555.323 833.519 543.96C828.06 532.535 825.33 520.125 825.33 506.731C825.33 492.195 828.377 479.278 834.471 467.979C840.564 456.68 849.483 448.016 861.226 441.985C870.176 437.352 881.316 435.035 894.646 435.035C911.976 435.035 925.496 438.685 935.208 445.984C944.983 453.221 951.268 463.25 954.061 476.072L926.067 481.309C924.1 474.454 920.386 469.058 914.927 465.123C909.532 461.124 902.771 459.124 894.646 459.124C882.332 459.124 872.525 463.028 865.225 470.835C857.989 478.643 854.371 490.228 854.371 505.589C854.371 522.156 858.052 534.598 865.416 542.913C872.779 551.165 882.427 555.291 894.361 555.291C900.264 555.291 906.167 554.148 912.071 551.863C918.038 549.515 923.147 546.69 927.4 543.389V525.679H895.123Z" fill="#929292"/>
</g>
<defs>
<clipPath id="clip0_6_56">
<rect width="1000" height="600" fill="white"/>
</clipPath>
</defs>
</svg>
