<?xml version="1.0" standalone="no"?>
<!DOCTYPE svg PUBLIC "-//W3C//DTD SVG 20010904//EN"
 "http://www.w3.org/TR/2001/REC-SVG-20010904/DTD/svg10.dtd">
<svg version="1.0" xmlns="http://www.w3.org/2000/svg"
 width="471.000000pt" height="283.000000pt" viewBox="0 0 471.000000 283.000000"
 preserveAspectRatio="xMidYMid meet">

<g transform="translate(0.000000,283.000000) scale(0.100000,-0.100000)"
fill="#000000" stroke="none">
<path d="M305 2816 c-117 -29 -216 -109 -268 -215 l-32 -66 0 -1125 0 -1125
31 -65 c40 -84 108 -153 187 -190 l62 -30 2070 0 2070 0 52 25 c63 29 143 101
178 160 57 98 56 65 53 1246 l-3 1084 -22 54 c-46 112 -122 189 -230 233 l-58
23 -2020 2 c-1583 1 -2031 -1 -2070 -11z m4115 -142 c54 -25 103 -72 133 -128
l22 -41 0 -1095 0 -1096 -26 -49 c-28 -56 -103 -119 -159 -135 -22 -6 -753
-10 -2045 -10 -2000 0 -2010 1 -2055 21 -55 25 -105 71 -133 124 l-22 40 0
1105 0 1105 31 50 c36 59 94 103 161 121 39 10 430 12 2048 11 l2000 -2 45
-21z"/>
<path d="M390 1835 l0 -575 105 0 105 0 0 230 0 230 58 0 c31 0 68 -6 82 -13
15 -7 81 -96 165 -222 104 -156 146 -211 165 -216 30 -8 210 -11 210 -4 0 14
-297 443 -323 466 l-28 26 50 21 c64 26 136 93 169 157 24 44 27 61 27 150 0
92 -2 104 -29 153 -47 84 -125 135 -244 161 -31 6 -150 11 -282 11 l-230 0 0
-575z m414 415 c128 -21 179 -77 174 -191 -4 -84 -36 -137 -103 -169 -37 -18
-70 -24 -161 -28 l-114 -5 0 202 0 201 73 0 c39 0 98 -4 131 -10z"/>
<path d="M1420 1835 l0 -575 360 0 360 0 0 85 0 85 -255 0 -255 0 0 165 0 165
205 0 205 0 0 80 0 80 -205 0 -205 0 0 165 0 165 255 0 255 0 0 80 0 80 -360
0 -360 0 0 -575z"/>
<path d="M2350 1834 l0 -576 273 5 c211 4 285 9 331 22 195 55 341 202 391
394 19 74 21 237 4 308 -48 202 -207 360 -410 408 -49 11 -127 15 -326 15
l-263 0 0 -576z m598 382 c77 -36 142 -104 174 -184 19 -49 22 -75 22 -192 0
-117 -3 -143 -22 -192 -30 -76 -99 -150 -170 -185 -55 -27 -64 -28 -229 -31
l-173 -4 0 412 0 412 168 -4 c160 -3 170 -4 230 -32z"/>
<path d="M600 925 c-60 -19 -125 -75 -157 -139 -23 -44 -27 -63 -28 -141 0
-79 3 -97 28 -147 49 -99 133 -148 251 -148 71 1 122 17 172 55 l36 28 -26 26
-27 26 -39 -23 c-75 -43 -163 -39 -225 10 -98 77 -90 287 14 355 47 32 137 32
198 1 l45 -23 24 30 24 30 -27 23 c-59 48 -174 64 -263 37z"/>
<path d="M3172 922 c-110 -40 -184 -148 -184 -271 -1 -124 47 -213 143 -266
49 -27 62 -30 149 -30 113 0 154 17 219 91 99 113 92 314 -16 416 -72 68 -212
95 -311 60z m215 -98 c98 -72 108 -264 18 -343 -101 -88 -266 -47 -303 76 -25
83 -10 185 36 237 40 45 74 57 149 54 54 -3 79 -9 100 -24z"/>
<path d="M3845 926 c-89 -28 -134 -66 -176 -146 -20 -38 -24 -60 -24 -135 0
-78 4 -97 27 -141 33 -63 85 -108 158 -135 78 -29 206 -24 270 12 l45 24 3
118 3 117 -96 0 -96 0 3 -32 c3 -32 5 -33 51 -36 l47 -3 0 -59 c0 -56 -1 -58
-31 -69 -51 -18 -135 -13 -179 9 -135 69 -144 300 -16 375 55 32 150 34 215 5
57 -26 63 -25 84 10 l18 30 -33 20 c-76 47 -191 62 -273 36z"/>
<path d="M1133 913 c-4 -10 -55 -141 -114 -290 l-107 -273 38 0 c59 0 67 7 95
81 l27 69 123 0 123 0 22 -62 c13 -35 30 -69 38 -75 18 -15 92 -18 92 -4 0 5
-50 136 -111 290 l-111 281 -54 0 c-43 0 -56 -4 -61 -17z m152 -323 c6 -19 3
-20 -90 -20 -74 0 -96 3 -93 13 3 6 24 68 48 136 l43 123 43 -115 c23 -64 45
-125 49 -137z"/>
<path d="M1490 890 l0 -40 90 0 90 0 0 -250 0 -250 50 0 50 0 0 250 0 250 90
0 90 0 0 40 0 40 -230 0 -230 0 0 -40z"/>
<path d="M2082 647 c-62 -156 -112 -286 -112 -290 0 -12 75 -8 92 6 9 6 26 40
38 75 l23 63 125 -3 124 -3 25 -68 c27 -72 40 -82 100 -75 l31 3 -113 285
-112 285 -54 3 -55 3 -112 -284z m212 64 c25 -69 46 -128 46 -133 0 -4 -43 -8
-96 -8 -53 0 -94 4 -92 8 2 4 23 65 48 134 25 70 46 126 47 125 1 -2 22 -58
47 -126z"/>
<path d="M2600 640 l0 -290 165 0 165 0 0 45 0 45 -115 0 -115 0 0 245 0 245
-50 0 -50 0 0 -290z"/>
</g>
</svg>
